<?xml version="1.0" encoding="UTF-8"?>
<svg id="Layer_1" data-name="Layer 1" xmlns="http://www.w3.org/2000/svg" viewBox="0 0 595.28 841.89">
  <defs>
    <style>
      .cls-1 {
        fill: #71be4a;
      }

      .cls-2 {
        fill: #1f5aa8;
      }

      .cls-3 {
        fill: #fff;
      }
    </style>
  </defs>
  <rect class="cls-2" x="0" y="0" width="595.28" height="841.89"/>
  <g>
    <g>
      <polygon class="cls-3" points="252.61 350.37 276.07 350.37 300.48 365.69 300.48 426.05 271.76 426.49 271.76 379.09 236.33 379.09 252.61 350.37"/>
      <polygon class="cls-1" points="300.48 297.23 359.85 331.7 359.85 364.73 330.17 382.92 300.48 365.69 327.16 349.67 272.24 314.46 300.48 297.23"/>
    </g>
    <g>
      <path class="cls-3" d="M194.77,458.3h-14.86v48.76h-15.5v-48.76h-14.86v-14.68h45.23v14.68Z"/>
      <path class="cls-3" d="M251.78,466.37c0,14.95-11.42,21.93-25.2,21.93h-8.16v18.76h-15.5v-63.44h23.66c15.77,0,25.2,9.06,25.2,22.75ZM236.01,466.37c0-4.89-3.44-8.07-9.43-8.07h-8.16v16.13h8.16c5.62,0,9.43-2.54,9.43-8.07Z"/>
      <path class="cls-3" d="M322.74,492.47v14.59h-39.24v-63.44h15.59v48.85h23.66Z"/>
      <path class="cls-3" d="M346.4,443.62v63.44h-15.5v-63.44h15.5Z"/>
      <path class="cls-3" d="M372.77,458.3v12.05h21.39v14.59h-21.39v22.11h-15.5v-63.44h39.52v14.68h-24.02Z"/>
      <path class="cls-3" d="M445.73,492.47v14.59h-39.88v-63.44h39.06v14.68h-23.57v9.79h20.66v13.87h-20.66v10.51h24.38Z"/>
    </g>
    <g>
      <path class="cls-3" d="M202.07,534.68c0,2.69-1.92,5.33-6.43,5.33-3.23,0-6.11-1.33-6.95-4.19l3.23-1.01c.25.99,1.28,2.27,3.7,2.27,1.73,0,3.11-.67,3.11-2.14,0-1.73-1.95-1.85-4.68-2.51-3.48-.86-4.63-2.61-4.63-5,0-3.25,2.49-5.28,6.09-5.28,2.88,0,5.15,1.43,5.89,4.07l-3.25.79c-.2-.91-1.08-1.92-2.81-1.92-1.43,0-2.61.74-2.61,2.12,0,1.95,2.19,2.22,3.8,2.59,4.09.94,5.57,2.12,5.57,4.91Z"/>
      <path class="cls-3" d="M208.09,530.04v4.56c0,1.43.2,2.27,1.92,2.27.22,0,.52-.02.74-.05v2.86c-.32.1-.67.17-1.31.17-3.2,0-4.49-2.14-4.49-4.73v-5.08h-1.77v-2.86h1.77v-2.61h3.13v2.61h2.66v2.86h-2.66Z"/>
      <path class="cls-3" d="M220.64,526.89v3.4c-3.7-.44-4.17,1.92-4.17,4.24v5.15h-3.13v-12.5h3.13v2.05c.94-1.55,2.66-2.34,4.17-2.34Z"/>
      <path class="cls-3" d="M235.06,533.45c0,3.65-2.84,6.56-6.61,6.56s-6.58-2.91-6.58-6.56,2.84-6.56,6.58-6.56,6.61,2.88,6.61,6.56ZM231.86,533.45c0-1.95-1.31-3.55-3.4-3.55s-3.38,1.6-3.38,3.55,1.31,3.55,3.38,3.55,3.4-1.6,3.4-3.55Z"/>
      <path class="cls-3" d="M248.62,532.09v7.59h-3.13v-6.95c0-1.6-.67-2.81-2.44-2.81s-2.66,1.38-2.66,2.81v6.95h-3.11v-12.5h3.11v1.53c.69-1.01,1.82-1.82,3.65-1.82,3.16,0,4.59,2.56,4.59,5.2Z"/>
      <path class="cls-3" d="M263.98,527.18v11.14c0,3.5-2.34,6.34-6.78,6.34-2.56,0-4.88-1.06-5.92-2.51l2.54-1.5c.47.62,1.6,1.23,3.28,1.23,2.42,0,3.75-1.33,3.75-3.77v-.91c-.76,1.08-2,1.92-3.94,1.92-3.77,0-6.06-2.88-6.06-6.11s2.29-6.11,6.06-6.11c1.95,0,3.18.84,3.94,1.92v-1.63h3.13ZM260.7,533c0-1.82-1.23-3.33-3.33-3.33s-3.33,1.45-3.33,3.33,1.31,3.33,3.33,3.33,3.33-1.5,3.33-3.33Z"/>
      <path class="cls-3" d="M278.8,534.65h-9.27c.44,1.68,1.82,2.56,3.55,2.56,1.43,0,2.42-.76,2.79-1.23l2.51,1.48c-1.01,1.41-2.93,2.54-5.3,2.54-4.14,0-6.88-2.76-6.88-6.56s2.93-6.56,6.39-6.56c3.77,0,6.78,2.84,6.21,7.77ZM275.74,532.24c-.32-1.63-1.43-2.56-3.11-2.56-1.53,0-2.74.96-3.11,2.56h6.21Z"/>
      <path class="cls-3" d="M288.39,526.89v3.4c-3.7-.44-4.17,1.92-4.17,4.24v5.15h-3.13v-12.5h3.13v2.05c.94-1.55,2.66-2.34,4.17-2.34Z"/>
      <path class="cls-3" d="M307.32,536.58v3.11h-10.18v-17.26h9.96v3.11h-6.63v3.9h6.06v3.11h-6.06v4.04h6.85Z"/>
      <path class="cls-3" d="M321.25,527.18l-4.63,12.5h-3.43l-4.63-12.5h3.38l2.96,8.88,2.98-8.88h3.38Z"/>
      <path class="cls-3" d="M334.47,534.65h-9.27c.44,1.68,1.82,2.56,3.55,2.56,1.43,0,2.42-.76,2.79-1.23l2.51,1.48c-1.01,1.41-2.93,2.54-5.3,2.54-4.14,0-6.88-2.76-6.88-6.56s2.93-6.56,6.39-6.56c3.77,0,6.78,2.84,6.21,7.77ZM331.41,532.24c-.32-1.63-1.43-2.56-3.11-2.56-1.53,0-2.74.96-3.11,2.56h6.21Z"/>
      <path class="cls-3" d="M344.06,526.89v3.4c-3.7-.44-4.17,1.92-4.17,4.24v5.15h-3.13v-12.5h3.13v2.05c.94-1.55,2.66-2.34,4.17-2.34Z"/>
      <path class="cls-3" d="M358.09,527.18l-6.83,17.26h-3.2l2.29-5.5-5.18-11.76h3.38l3.23,8.26,2.93-8.26h3.38Z"/>
      <path class="cls-3" d="M381.01,531.05c0,5.08-3.43,8.63-9.17,8.63h-5.37v-17.26h5.37c5.74,0,9.17,3.55,9.17,8.63ZM377.66,531.05c0-3.85-2.69-5.52-5.82-5.52h-2.02v11.04h2.02c3.13,0,5.82-1.68,5.82-5.52Z"/>
      <path class="cls-3" d="M393.47,532.14v7.54h-3.13v-1.33c-.59.96-1.97,1.65-3.65,1.65-1.87,0-4.44-1.01-4.44-3.67,0-4.12,5.08-4.12,6.73-4.12h1.36c-.02-1.8-.67-2.59-2.59-2.59-1.13,0-2.14.59-2.61.91l-2.14-1.63c1.38-1.26,3.11-2.02,5.2-2.02,3.97,0,5.28,2.27,5.28,5.25ZM390.34,534.19h-.2c-2.24,0-4.68-.02-4.68,1.85,0,.94.62,1.7,2.17,1.7s2.44-.91,2.71-1.43v-2.12Z"/>
      <path class="cls-3" d="M407.74,527.18l-6.83,17.26h-3.2l2.29-5.5-5.18-11.76h3.38l3.23,8.26,2.93-8.26h3.38Z"/>
    </g>
  </g>
</svg>
