<?xml version="1.0" encoding="UTF-8"?>
<svg id="Layer_1" data-name="Layer 1" xmlns="http://www.w3.org/2000/svg" viewBox="0 0 595.28 841.89">
  <defs>
    <style>
      .cls-1 {
        fill: #71be4a;
      }

      .cls-2 {
        fill: #1f5aa8;
      }
    </style>
  </defs>
  <g>
    <g>
      <polygon class="cls-2" points="257.12 299.44 278.23 299.44 300.2 313.23 300.2 367.54 274.35 367.94 274.35 325.29 242.48 325.29 257.12 299.44"/>
      <polygon class="cls-1" points="300.2 251.63 353.62 282.64 353.62 312.37 326.91 328.74 300.2 313.23 324.21 298.82 274.78 267.13 300.2 251.63"/>
    </g>
    <g>
      <path class="cls-2" d="M205.07,396.56h-13.37v43.88h-13.95v-43.88h-13.37v-13.21h40.7v13.21Z"/>
      <path class="cls-2" d="M256.37,403.82c0,13.46-10.28,19.74-22.67,19.74h-7.34v16.88h-13.95v-57.09h21.29c14.19,0,22.67,8.16,22.67,20.47ZM242.18,403.82c0-4.4-3.1-7.26-8.48-7.26h-7.34v14.52h7.34c5.06,0,8.48-2.28,8.48-7.26Z"/>
      <path class="cls-2" d="M320.23,427.31v13.13h-35.31v-57.09h14.03v43.96h21.29Z"/>
      <path class="cls-2" d="M341.51,383.35v57.09h-13.95v-57.09h13.95Z"/>
      <path class="cls-2" d="M365.25,396.56v10.85h19.25v13.13h-19.25v19.9h-13.95v-57.09h35.56v13.21h-21.61Z"/>
      <path class="cls-2" d="M430.9,427.31v13.13h-35.88v-57.09h35.15v13.21h-21.2v8.81h18.59v12.48h-18.59v9.46h21.94Z"/>
    </g>
    <g>
      <path class="cls-2" d="M211.65,465.29c0,2.42-1.73,4.79-5.79,4.79-2.91,0-5.5-1.2-6.26-3.77l2.91-.91c.22.89,1.15,2.04,3.33,2.04,1.55,0,2.8-.6,2.8-1.93,0-1.55-1.75-1.66-4.21-2.26-3.13-.78-4.17-2.35-4.17-4.5,0-2.93,2.24-4.75,5.48-4.75,2.6,0,4.64,1.29,5.3,3.66l-2.93.71c-.18-.82-.98-1.73-2.53-1.73-1.29,0-2.35.67-2.35,1.91,0,1.75,1.97,2,3.42,2.33,3.68.84,5.01,1.91,5.01,4.41Z"/>
      <path class="cls-2" d="M217.06,461.12v4.1c0,1.29.18,2.04,1.73,2.04.2,0,.47-.02.67-.04v2.57c-.29.09-.6.16-1.18.16-2.88,0-4.04-1.93-4.04-4.26v-4.57h-1.6v-2.57h1.6v-2.35h2.82v2.35h2.4v2.57h-2.4Z"/>
      <path class="cls-2" d="M228.35,458.28v3.06c-3.33-.4-3.75,1.73-3.75,3.82v4.64h-2.82v-11.25h2.82v1.84c.84-1.4,2.4-2.11,3.75-2.11Z"/>
      <path class="cls-2" d="M241.33,464.18c0,3.28-2.55,5.9-5.95,5.9s-5.92-2.62-5.92-5.9,2.55-5.9,5.92-5.9,5.95,2.6,5.95,5.9ZM238.45,464.18c0-1.75-1.18-3.19-3.06-3.19s-3.04,1.44-3.04,3.19,1.18,3.19,3.04,3.19,3.06-1.44,3.06-3.19Z"/>
      <path class="cls-2" d="M253.53,462.96v6.83h-2.82v-6.26c0-1.44-.6-2.53-2.2-2.53s-2.4,1.24-2.4,2.53v6.26h-2.8v-11.25h2.8v1.38c.62-.91,1.64-1.64,3.28-1.64,2.84,0,4.13,2.31,4.13,4.68Z"/>
      <path class="cls-2" d="M267.35,458.55v10.03c0,3.15-2.11,5.7-6.1,5.7-2.31,0-4.39-.95-5.32-2.26l2.28-1.35c.42.55,1.44,1.11,2.95,1.11,2.17,0,3.37-1.2,3.37-3.39v-.82c-.69.98-1.8,1.73-3.55,1.73-3.39,0-5.46-2.6-5.46-5.5s2.06-5.5,5.46-5.5c1.75,0,2.86.75,3.55,1.73v-1.46h2.82ZM264.4,463.78c0-1.64-1.11-2.99-2.99-2.99s-2.99,1.31-2.99,2.99,1.18,2.99,2.99,2.99,2.99-1.35,2.99-2.99Z"/>
      <path class="cls-2" d="M280.69,465.27h-8.34c.4,1.51,1.64,2.31,3.19,2.31,1.29,0,2.17-.69,2.51-1.11l2.26,1.33c-.91,1.26-2.64,2.28-4.77,2.28-3.73,0-6.19-2.48-6.19-5.9s2.64-5.9,5.75-5.9c3.39,0,6.1,2.55,5.59,6.99ZM277.93,463.09c-.29-1.46-1.29-2.31-2.8-2.31-1.38,0-2.46.86-2.8,2.31h5.59Z"/>
      <path class="cls-2" d="M289.32,458.28v3.06c-3.33-.4-3.75,1.73-3.75,3.82v4.64h-2.82v-11.25h2.82v1.84c.84-1.4,2.4-2.11,3.75-2.11Z"/>
      <path class="cls-2" d="M306.35,467v2.8h-9.16v-15.53h8.96v2.8h-5.97v3.5h5.46v2.8h-5.46v3.64h6.17Z"/>
      <path class="cls-2" d="M318.89,458.55l-4.17,11.25h-3.08l-4.17-11.25h3.04l2.66,7.99,2.68-7.99h3.04Z"/>
      <path class="cls-2" d="M330.78,465.27h-8.34c.4,1.51,1.64,2.31,3.19,2.31,1.29,0,2.17-.69,2.51-1.11l2.26,1.33c-.91,1.26-2.64,2.28-4.77,2.28-3.73,0-6.19-2.48-6.19-5.9s2.64-5.9,5.75-5.9c3.39,0,6.1,2.55,5.59,6.99ZM328.03,463.09c-.29-1.46-1.29-2.31-2.8-2.31-1.38,0-2.46.86-2.8,2.31h5.59Z"/>
      <path class="cls-2" d="M339.41,458.28v3.06c-3.33-.4-3.75,1.73-3.75,3.82v4.64h-2.82v-11.25h2.82v1.84c.84-1.4,2.4-2.11,3.75-2.11Z"/>
      <path class="cls-2" d="M352.03,458.55l-6.14,15.53h-2.88l2.06-4.95-4.66-10.58h3.04l2.91,7.43,2.64-7.43h3.04Z"/>
      <path class="cls-2" d="M372.66,462.03c0,4.57-3.08,7.76-8.25,7.76h-4.84v-15.53h4.84c5.17,0,8.25,3.19,8.25,7.76ZM369.64,462.03c0-3.46-2.42-4.97-5.24-4.97h-1.82v9.94h1.82c2.82,0,5.24-1.51,5.24-4.97Z"/>
      <path class="cls-2" d="M383.87,463.01v6.79h-2.82v-1.2c-.53.87-1.77,1.49-3.28,1.49-1.69,0-3.99-.91-3.99-3.31,0-3.7,4.57-3.7,6.06-3.7h1.22c-.02-1.62-.6-2.33-2.33-2.33-1.02,0-1.93.53-2.35.82l-1.93-1.46c1.24-1.13,2.8-1.82,4.68-1.82,3.57,0,4.75,2.04,4.75,4.73ZM381.05,464.85h-.18c-2.02,0-4.21-.02-4.21,1.66,0,.84.55,1.53,1.95,1.53s2.2-.82,2.44-1.29v-1.91Z"/>
      <path class="cls-2" d="M396.71,458.55l-6.14,15.53h-2.88l2.06-4.95-4.66-10.58h3.04l2.91,7.43,2.64-7.43h3.04Z"/>
    </g>
  </g>
  <g>
    <g>
      <path class="cls-2" d="M254.43,738.57h-1.99v1.97h-1.49v-1.97h-1.97v-1.49h1.97v-1.99h1.49v1.99h1.99v1.49Z"/>
      <path class="cls-2" d="M262.69,739.21c0,1.63-1.25,2.93-3.45,2.93-1.79,0-3.24-.93-3.49-2.24l1.81-.42c.1.43.57.95,1.68.95s1.53-.67,1.53-1.42c0-1.1-1.03-1.24-1.71-1.24h-.82v-1.6h.82c.74,0,1.58-.25,1.58-1.21,0-.79-.53-1.22-1.38-1.22s-1.25.46-1.4.93l-1.72-.4c.39-1.31,1.6-2.21,3.13-2.21,2,0,3.18,1.15,3.18,2.67,0,.99-.46,1.77-1.42,2.2,1.06.36,1.65,1.1,1.65,2.28Z"/>
      <path class="cls-2" d="M271.08,739.09c0,1.83-1.54,3.06-3.64,3.06s-3.64-1.22-3.64-3.06c0-1.06.6-1.86,1.53-2.33-.76-.47-1.17-1.21-1.17-2.02,0-1.43,1.2-2.67,3.28-2.67s3.27,1.24,3.27,2.67c0,.81-.39,1.54-1.15,2.02.92.47,1.53,1.28,1.53,2.33ZM269.12,738.99c0-.83-.65-1.45-1.68-1.45s-1.7.61-1.7,1.45c0,.72.51,1.42,1.7,1.42s1.68-.7,1.68-1.42ZM266,734.94c0,.82.65,1.24,1.45,1.24s1.45-.42,1.45-1.24-.72-1.28-1.45-1.28-1.45.43-1.45,1.28Z"/>
      <path class="cls-2" d="M278.99,739.21c0,1.63-1.25,2.93-3.45,2.93-1.79,0-3.24-.93-3.49-2.24l1.81-.42c.1.43.57.95,1.68.95s1.53-.67,1.53-1.42c0-1.1-1.03-1.24-1.71-1.24h-.82v-1.6h.82c.74,0,1.58-.25,1.58-1.21,0-.79-.53-1.22-1.38-1.22s-1.25.46-1.4.93l-1.72-.4c.39-1.31,1.6-2.21,3.13-2.21,2,0,3.18,1.15,3.18,2.67,0,.99-.46,1.77-1.42,2.2,1.06.36,1.65,1.1,1.65,2.28Z"/>
      <path class="cls-2" d="M291.38,740.03h-1.15v1.93h-1.89v-1.93h-4.54v-1.49l3.95-6.31h2.49v6.19h1.15v1.61ZM288.33,738.42v-4.21l-2.63,4.21h2.63Z"/>
      <path class="cls-2" d="M292.14,735.49c0-1.93,1.46-3.42,3.54-3.42s3.55,1.49,3.55,3.42c0,1.35-.72,2.33-1.08,2.86l-2.46,3.61h-2.06l2.31-3.18h-.25c-1.99,0-3.54-1.21-3.54-3.29ZM294,735.49c0,.95.68,1.68,1.68,1.68.93,0,1.7-.65,1.7-1.68s-.83-1.7-1.7-1.7-1.68.63-1.68,1.7Z"/>
      <path class="cls-2" d="M310.75,739.21c0,1.63-1.25,2.93-3.45,2.93-1.79,0-3.24-.93-3.49-2.24l1.81-.42c.1.43.57.95,1.68.95s1.53-.67,1.53-1.42c0-1.1-1.03-1.24-1.71-1.24h-.82v-1.6h.82c.74,0,1.58-.25,1.58-1.21,0-.79-.53-1.22-1.38-1.22s-1.25.46-1.4.93l-1.72-.4c.39-1.31,1.6-2.21,3.13-2.21,2,0,3.18,1.15,3.18,2.67,0,.99-.46,1.77-1.42,2.2,1.06.36,1.65,1.1,1.65,2.28Z"/>
      <path class="cls-2" d="M317.87,732.23v1.56l-3.45,8.17h-1.89l3.35-7.98h-4.09v-1.75h6.07Z"/>
      <path class="cls-2" d="M325.57,739.21c0,1.63-1.25,2.93-3.45,2.93-1.79,0-3.24-.93-3.49-2.24l1.81-.42c.1.43.57.95,1.68.95s1.53-.67,1.53-1.42c0-1.1-1.03-1.24-1.71-1.24h-.82v-1.6h.82c.74,0,1.58-.25,1.58-1.21,0-.79-.53-1.22-1.38-1.22s-1.25.46-1.4.93l-1.72-.4c.39-1.31,1.6-2.21,3.13-2.21,2,0,3.18,1.15,3.18,2.67,0,.99-.46,1.77-1.42,2.2,1.06.36,1.65,1.1,1.65,2.28Z"/>
      <path class="cls-2" d="M330.3,735.49c0-1.93,1.46-3.42,3.54-3.42s3.54,1.49,3.54,3.42c0,1.35-.72,2.33-1.08,2.86l-2.46,3.61h-2.06l2.31-3.18h-.25c-1.99,0-3.54-1.21-3.54-3.29ZM332.16,735.49c0,.95.68,1.68,1.68,1.68.93,0,1.7-.65,1.7-1.68s-.83-1.7-1.7-1.7-1.68.63-1.68,1.7Z"/>
      <path class="cls-2" d="M345.17,738.72c0,1.92-1.46,3.42-3.54,3.42s-3.54-1.5-3.54-3.42c0-1.36.72-2.33,1.08-2.86l2.46-3.63h2.06l-2.31,3.2c.07-.01.15-.01.25-.01,1.99,0,3.54,1.22,3.54,3.31ZM343.31,738.72c0-.96-.68-1.7-1.68-1.7-.93,0-1.7.65-1.7,1.7s.83,1.68,1.7,1.68,1.68-.61,1.68-1.68Z"/>
      <path class="cls-2" d="M345.86,735.49c0-1.93,1.46-3.42,3.54-3.42s3.54,1.49,3.54,3.42c0,1.35-.72,2.33-1.08,2.86l-2.46,3.61h-2.06l2.31-3.18h-.25c-1.99,0-3.54-1.21-3.54-3.29ZM347.73,735.49c0,.95.68,1.68,1.68,1.68.93,0,1.7-.65,1.7-1.68s-.83-1.7-1.7-1.7-1.68.63-1.68,1.7Z"/>
      <path class="cls-2" d="M254.43,761.28h-1.99v1.97h-1.49v-1.97h-1.97v-1.49h1.97v-1.99h1.49v1.99h1.99v1.49Z"/>
      <path class="cls-2" d="M262.69,761.92c0,1.63-1.25,2.93-3.45,2.93-1.79,0-3.24-.93-3.49-2.24l1.81-.42c.1.43.57.95,1.68.95s1.53-.67,1.53-1.42c0-1.1-1.03-1.24-1.71-1.24h-.82v-1.6h.82c.74,0,1.58-.25,1.58-1.21,0-.79-.53-1.22-1.38-1.22s-1.25.46-1.4.93l-1.72-.4c.39-1.31,1.6-2.21,3.13-2.21,2,0,3.18,1.15,3.18,2.67,0,.99-.46,1.77-1.42,2.2,1.06.36,1.65,1.1,1.65,2.28Z"/>
      <path class="cls-2" d="M271.08,761.79c0,1.83-1.54,3.06-3.64,3.06s-3.64-1.22-3.64-3.06c0-1.06.6-1.86,1.53-2.33-.76-.47-1.17-1.21-1.17-2.02,0-1.43,1.2-2.67,3.28-2.67s3.27,1.24,3.27,2.67c0,.81-.39,1.54-1.15,2.02.92.47,1.53,1.28,1.53,2.33ZM269.12,761.7c0-.83-.65-1.45-1.68-1.45s-1.7.61-1.7,1.45c0,.72.51,1.42,1.7,1.42s1.68-.7,1.68-1.42ZM266,757.65c0,.82.65,1.24,1.45,1.24s1.45-.42,1.45-1.24-.72-1.28-1.45-1.28-1.45.43-1.45,1.28Z"/>
      <path class="cls-2" d="M278.99,761.92c0,1.63-1.25,2.93-3.45,2.93-1.79,0-3.24-.93-3.49-2.24l1.81-.42c.1.43.57.95,1.68.95s1.53-.67,1.53-1.42c0-1.1-1.03-1.24-1.71-1.24h-.82v-1.6h.82c.74,0,1.58-.25,1.58-1.21,0-.79-.53-1.22-1.38-1.22s-1.25.46-1.4.93l-1.72-.4c.39-1.31,1.6-2.21,3.13-2.21,2,0,3.18,1.15,3.18,2.67,0,.99-.46,1.77-1.42,2.2,1.06.36,1.65,1.1,1.65,2.28Z"/>
      <path class="cls-2" d="M291.38,762.74h-1.15v1.93h-1.89v-1.93h-4.54v-1.49l3.95-6.31h2.49v6.19h1.15v1.61ZM288.33,761.13v-4.21l-2.63,4.21h2.63Z"/>
      <path class="cls-2" d="M292.14,758.19c0-1.93,1.46-3.42,3.54-3.42s3.55,1.49,3.55,3.42c0,1.35-.72,2.33-1.08,2.86l-2.46,3.61h-2.06l2.31-3.18h-.25c-1.99,0-3.54-1.21-3.54-3.29ZM294,758.19c0,.95.68,1.68,1.68,1.68.93,0,1.7-.65,1.7-1.68s-.83-1.7-1.7-1.7-1.68.63-1.68,1.7Z"/>
      <path class="cls-2" d="M310.75,761.92c0,1.63-1.25,2.93-3.45,2.93-1.79,0-3.24-.93-3.49-2.24l1.81-.42c.1.43.57.95,1.68.95s1.53-.67,1.53-1.42c0-1.1-1.03-1.24-1.71-1.24h-.82v-1.6h.82c.74,0,1.58-.25,1.58-1.21,0-.79-.53-1.22-1.38-1.22s-1.25.46-1.4.93l-1.72-.4c.39-1.31,1.6-2.21,3.13-2.21,2,0,3.18,1.15,3.18,2.67,0,.99-.46,1.77-1.42,2.2,1.06.36,1.65,1.1,1.65,2.28Z"/>
      <path class="cls-2" d="M317.87,754.94v1.56l-3.45,8.17h-1.89l3.35-7.98h-4.09v-1.75h6.07Z"/>
      <path class="cls-2" d="M325.57,761.92c0,1.63-1.25,2.93-3.45,2.93-1.79,0-3.24-.93-3.49-2.24l1.81-.42c.1.43.57.95,1.68.95s1.53-.67,1.53-1.42c0-1.1-1.03-1.24-1.71-1.24h-.82v-1.6h.82c.74,0,1.58-.25,1.58-1.21,0-.79-.53-1.22-1.38-1.22s-1.25.46-1.4.93l-1.72-.4c.39-1.31,1.6-2.21,3.13-2.21,2,0,3.18,1.15,3.18,2.67,0,.99-.46,1.77-1.42,2.2,1.06.36,1.65,1.1,1.65,2.28Z"/>
      <path class="cls-2" d="M330.3,758.19c0-1.93,1.46-3.42,3.54-3.42s3.54,1.49,3.54,3.42c0,1.35-.72,2.33-1.08,2.86l-2.46,3.61h-2.06l2.31-3.18h-.25c-1.99,0-3.54-1.21-3.54-3.29ZM332.16,758.19c0,.95.68,1.68,1.68,1.68.93,0,1.7-.65,1.7-1.68s-.83-1.7-1.7-1.7-1.68.63-1.68,1.7Z"/>
      <path class="cls-2" d="M345.17,761.43c0,1.92-1.46,3.42-3.54,3.42s-3.54-1.5-3.54-3.42c0-1.36.72-2.33,1.08-2.86l2.46-3.63h2.06l-2.31,3.2c.07-.01.15-.01.25-.01,1.99,0,3.54,1.22,3.54,3.31ZM343.31,761.43c0-.96-.68-1.7-1.68-1.7-.93,0-1.7.65-1.7,1.7s.83,1.68,1.7,1.68,1.68-.61,1.68-1.68Z"/>
      <path class="cls-2" d="M345.86,758.19c0-1.93,1.46-3.42,3.54-3.42s3.54,1.49,3.54,3.42c0,1.35-.72,2.33-1.08,2.86l-2.46,3.61h-2.06l2.31-3.18h-.25c-1.99,0-3.54-1.21-3.54-3.29ZM347.73,758.19c0,.95.68,1.68,1.68,1.68.93,0,1.7-.65,1.7-1.68s-.83-1.7-1.7-1.7-1.68.63-1.68,1.7Z"/>
      <path class="cls-2" d="M248.86,778.36c0-.51.42-.93.93-.93s.95.42.95.93-.42.95-.95.95-.93-.42-.93-.95ZM248.92,780.33h1.77v7.05h-1.77v-7.05Z"/>
      <path class="cls-2" d="M258.74,783.1v4.28h-1.77v-3.92c0-.9-.38-1.58-1.38-1.58s-1.5.78-1.5,1.58v3.92h-1.75v-7.05h1.75v.86c.39-.57,1.03-1.03,2.06-1.03,1.78,0,2.59,1.45,2.59,2.93Z"/>
      <path class="cls-2" d="M262.68,780.33h1.52v1.61h-1.52v5.44h-1.77v-5.44h-.99v-1.61h.99c0-1.45.64-2.86,2.54-2.86.35,0,.5.01.74.06v1.47c-.1,0-.19-.01-.31-.01-.9,0-1.21.49-1.21,1.35Z"/>
      <path class="cls-2" d="M272.32,783.86c0,2.06-1.6,3.7-3.73,3.7s-3.71-1.64-3.71-3.7,1.6-3.7,3.71-3.7,3.73,1.63,3.73,3.7ZM270.52,783.86c0-1.1-.74-2-1.92-2s-1.9.9-1.9,2,.74,2,1.9,2,1.92-.9,1.92-2Z"/>
      <path class="cls-2" d="M284.85,782.24c0,2.2-1.24,3.27-2.38,3.27-.81,0-1.36-.33-1.65-1.01-.4.57-1.04.95-1.96.95-1.57,0-2.59-1.25-2.59-2.72s1.01-2.72,2.52-2.72c.88,0,1.47.39,1.85.92v-.78h1.15v3c0,.68.07,1.28.76,1.28.76,0,1.18-1.08,1.18-2.17,0-2.25-1.71-4-4.49-4s-4.63,1.75-4.63,4.5,2.2,4.45,4.43,4.45c1.38,0,2.29-.54,2.61-.83l.68.81c-.57.47-1.64,1.03-3.29,1.03-3.25,0-5.55-2.28-5.55-5.45s2.28-5.49,5.74-5.49,5.6,2.42,5.6,4.99ZM280.58,782.71c0-.81-.58-1.45-1.46-1.45s-1.46.6-1.46,1.45.54,1.46,1.46,1.46c1.01,0,1.46-.74,1.46-1.46Z"/>
      <path class="cls-2" d="M288.79,781.94v2.57c0,.81.11,1.28,1.08,1.28.12,0,.29-.01.42-.03v1.61c-.18.06-.38.1-.74.1-1.81,0-2.53-1.21-2.53-2.67v-2.86h-1v-1.61h1v-1.47h1.77v1.47h1.5v1.61h-1.5Z"/>
      <path class="cls-2" d="M299.2,783.86c0,1.85-1.25,3.7-3.45,3.7-1.08,0-1.79-.43-2.24-1v3.5h-1.77v-9.73h1.77v.83c.44-.58,1.15-1,2.24-1,2.2,0,3.45,1.85,3.45,3.7ZM297.4,783.86c0-1.08-.7-2-1.9-2s-1.9.92-1.9,2,.68,2,1.9,2,1.9-.92,1.9-2Z"/>
      <path class="cls-2" d="M302.22,777.65v9.73h-1.77v-9.73h1.77Z"/>
      <path class="cls-2" d="M303.83,778.36c0-.51.42-.93.93-.93s.95.42.95.93-.42.95-.95.95-.93-.42-.93-.95ZM303.89,780.33h1.77v7.05h-1.77v-7.05Z"/>
      <path class="cls-2" d="M309.59,780.33h1.51v1.61h-1.51v5.44h-1.77v-5.44h-.99v-1.61h.99c0-1.45.64-2.86,2.54-2.86.35,0,.5.01.74.06v1.47c-.1,0-.19-.01-.31-.01-.9,0-1.21.49-1.21,1.35Z"/>
      <path class="cls-2" d="M318.9,784.54h-5.23c.25.95,1.03,1.45,2,1.45.81,0,1.36-.43,1.57-.7l1.42.83c-.57.79-1.65,1.43-2.99,1.43-2.33,0-3.88-1.56-3.88-3.7s1.65-3.7,3.6-3.7c2.13,0,3.82,1.6,3.5,4.38ZM317.18,783.18c-.18-.92-.81-1.45-1.75-1.45-.86,0-1.54.54-1.75,1.45h3.5Z"/>
      <path class="cls-2" d="M324.71,782.5v1.49h-4.45v-1.49h4.45Z"/>
      <path class="cls-2" d="M330.7,787.38l-2.5-3.35v3.35h-1.75v-9.73h1.75v5.67l2.2-2.99h2.03l-2.52,3.25,2.95,3.79h-2.15Z"/>
      <path class="cls-2" d="M339.29,785.21c0,1.39-1.01,2.35-2.99,2.35-1.35,0-2.71-.54-3.03-1.72l1.7-.53c.06.29.33.76,1.36.76.74,0,1.15-.26,1.15-.74,0-.67-1.02-.64-1.85-.82-1.36-.28-2.06-.93-2.06-2.14,0-1.33,1.11-2.21,2.77-2.21,1.21,0,2.41.6,2.7,1.82l-1.6.39c-.08-.36-.43-.72-1.1-.72-.51,0-1.04.2-1.04.72,0,.62.95.67,1.5.79,1.72.38,2.49.85,2.49,2.04Z"/>
      <path class="cls-2" d="M342.44,786.53c0,.57-.46,1.03-1.01,1.03s-1.03-.46-1.03-1.03.46-1.03,1.03-1.03,1.01.46,1.01,1.03Z"/>
      <path class="cls-2" d="M348.84,784.96l1.54.88c-.65,1.04-1.81,1.72-3.17,1.72-2.11,0-3.73-1.64-3.73-3.7s1.61-3.7,3.73-3.7c1.36,0,2.52.68,3.17,1.71l-1.54.89c-.32-.54-.88-.9-1.63-.9-1.18,0-1.92.9-1.92,2s.74,2,1.92,2c.75,0,1.31-.36,1.63-.9Z"/>
      <path class="cls-2" d="M358.3,783.86c0,2.06-1.6,3.7-3.72,3.7s-3.71-1.64-3.71-3.7,1.6-3.7,3.71-3.7,3.72,1.63,3.72,3.7ZM356.5,783.86c0-1.1-.74-2-1.92-2s-1.91.9-1.91,2,.74,2,1.91,2,1.92-.9,1.92-2Z"/>
      <path class="cls-2" d="M369.72,782.97v4.41h-1.76v-4.04c0-.88-.36-1.46-1.18-1.46s-1.25.65-1.25,1.46v4.04h-1.77v-4.04c0-.88-.36-1.46-1.18-1.46s-1.25.65-1.25,1.46v4.04h-1.77v-7.05h1.77v.75c.36-.51.93-.92,1.86-.92s1.58.45,1.95,1.11c.43-.62,1.13-1.11,2.13-1.11,1.63,0,2.46,1.32,2.46,2.81Z"/>
      <path class="cls-2" d="M250.88,802.11v2.41h3.41v1.75h-3.41v3.82h-1.89v-9.73h5.7v1.75h-3.81Z"/>
      <path class="cls-2" d="M262.26,803.04v7.05h-1.77v-.86c-.39.58-1.01,1.04-2.04,1.04-1.78,0-2.59-1.45-2.59-2.93v-4.3h1.77v3.92c0,.9.38,1.58,1.36,1.58,1.06,0,1.5-.76,1.5-1.58v-3.92h1.77Z"/>
      <path class="cls-2" d="M269.32,807.92c0,1.39-1.01,2.35-2.99,2.35-1.35,0-2.71-.54-3.03-1.72l1.7-.53c.06.29.33.76,1.36.76.74,0,1.15-.26,1.15-.74,0-.67-1.01-.64-1.85-.82-1.36-.28-2.06-.93-2.06-2.14,0-1.33,1.11-2.21,2.77-2.21,1.21,0,2.4.6,2.7,1.82l-1.6.39c-.08-.36-.43-.72-1.1-.72-.51,0-1.04.2-1.04.72,0,.62.95.67,1.5.79,1.72.38,2.49.85,2.49,2.04Z"/>
      <path class="cls-2" d="M276.9,805.81v4.28h-1.77v-3.92c0-.9-.38-1.58-1.38-1.58s-1.5.78-1.5,1.58v3.92h-1.75v-9.73h1.75v3.54c.39-.57,1.03-1.03,2.06-1.03,1.78,0,2.59,1.45,2.59,2.93Z"/>
      <path class="cls-2" d="M285.25,807.25h-5.23c.25.95,1.03,1.45,2,1.45.81,0,1.36-.43,1.57-.7l1.42.83c-.57.79-1.65,1.43-2.99,1.43-2.33,0-3.88-1.56-3.88-3.7s1.65-3.7,3.6-3.7c2.13,0,3.82,1.6,3.5,4.38ZM283.53,805.89c-.18-.92-.81-1.45-1.75-1.45-.86,0-1.54.54-1.75,1.45h3.5Z"/>
      <path class="cls-2" d="M295.69,810.09l-3.59-4.52v4.52h-1.88v-9.73h1.88v4.64l3.35-4.64h2.16l-3.63,4.8,3.99,4.93h-2.28Z"/>
      <path class="cls-2" d="M305.61,806.57c0,2.06-1.6,3.7-3.72,3.7s-3.71-1.64-3.71-3.7,1.6-3.7,3.71-3.7,3.72,1.63,3.72,3.7ZM303.81,806.57c0-1.1-.74-2-1.92-2s-1.9.9-1.9,2,.74,2,1.9,2,1.92-.9,1.92-2Z"/>
      <path class="cls-2" d="M312.26,807.92c0,1.39-1.01,2.35-2.99,2.35-1.35,0-2.71-.54-3.03-1.72l1.7-.53c.06.29.33.76,1.36.76.74,0,1.15-.26,1.15-.74,0-.67-1.02-.64-1.85-.82-1.36-.28-2.06-.93-2.06-2.14,0-1.33,1.11-2.21,2.77-2.21,1.21,0,2.41.6,2.7,1.82l-1.6.39c-.08-.36-.43-.72-1.1-.72-.51,0-1.04.2-1.04.72,0,.62.95.67,1.5.79,1.72.38,2.49.85,2.49,2.04Z"/>
      <path class="cls-2" d="M320.46,806.57c0,2.06-1.6,3.7-3.72,3.7s-3.71-1.64-3.71-3.7,1.6-3.7,3.71-3.7,3.72,1.63,3.72,3.7ZM318.65,806.57c0-1.1-.74-2-1.92-2s-1.91.9-1.91,2,.74,2,1.91,2,1.92-.9,1.92-2Z"/>
      <path class="cls-2" d="M327.96,803.04l-2.61,7.05h-1.93l-2.61-7.05h1.9l1.67,5,1.68-5h1.9Z"/>
      <path class="cls-2" d="M335.41,807.25h-5.23c.25.95,1.03,1.45,2,1.45.81,0,1.36-.43,1.57-.7l1.42.83c-.57.79-1.65,1.43-2.99,1.43-2.33,0-3.88-1.56-3.88-3.7s1.65-3.7,3.6-3.7c2.13,0,3.82,1.6,3.5,4.38ZM331.49,801.08c0,.53-.42.96-.95.96s-.96-.43-.96-.96.43-.95.96-.95.95.42.95.95ZM333.69,805.89c-.18-.92-.81-1.45-1.75-1.45-.86,0-1.54.54-1.75,1.45h3.5ZM334.44,801.08c0,.53-.43.96-.96.96s-.95-.43-.95-.96.43-.95.95-.95.96.42.96.95Z"/>
    </g>
    <path class="cls-2" d="M232.4,815.7c-3.79-4.12-9.06-12.59-3.52-16.68,2-1.48,4.67-1.55,6.74-.16s3.06,3.95,2.48,6.67c-.99,3.71-2.93,6.91-5.7,10.18ZM234.55,804.13c0-1.21-.98-2.2-2.2-2.2s-2.2.98-2.2,2.2.98,2.2,2.2,2.2,2.2-.98,2.2-2.2Z"/>
    <path class="cls-2" d="M233.95,763.67c2.65-1.89,3.29-.34,6.07,1.56-.06,1.4-1.34,3.13-2.84,3.3-3.89.45-13.35-9.34-12.38-12.64.41-1.39,1.96-2.53,3.27-2.67l2.67,3.87-1.08,2.32c1.26,1.47,2.76,2.97,4.29,4.26Z"/>
    <path class="cls-2" d="M233.95,739.53c2.65-1.89,3.29-.34,6.07,1.56-.06,1.4-1.34,3.13-2.84,3.3-3.89.45-13.35-9.34-12.38-12.64.41-1.39,1.96-2.53,3.27-2.67l2.67,3.87-1.08,2.32c1.26,1.47,2.76,2.97,4.29,4.26Z"/>
    <g>
      <path class="cls-2" d="M239.73,787.33c.02.72-.69,1.71-1.46,1.71h-11.88c-2.26-.02-1.04-7-1.18-8.77l7.19,4.33,7.17-4.42.15,7.14Z"/>
      <path class="cls-2" d="M239.36,778.53l-6.97,4.47-6.97-4.4c-.4-.25.65-1.24,1.14-1.24h11.68c.36,0,1.46.95,1.12,1.17Z"/>
    </g>
  </g>
</svg>
